<svg xmlns="http://www.w3.org/2000/svg" xmlns:xlink="http://www.w3.org/1999/xlink" viewBox="0 0 476.84 132.48"><defs><style>.cls-1{fill:none;}.cls-2{fill:#2b74a8;}.cls-3{fill:#3fa9f5;}.cls-4{fill:#fff;}.cls-5{opacity:0.75;}.cls-6{clip-path:url(#clip-path);}.cls-7{opacity:0.5;}.cls-8{clip-path:url(#clip-path-2);}.cls-9{fill:url(#linear-gradient);}</style><clipPath id="clip-path"><rect class="cls-1" x="36.15" y="82.37" width="51.98" height="3.25"/></clipPath><clipPath id="clip-path-2"><rect class="cls-1" x="39.53" y="91.29" width="39.32" height="3.25"/></clipPath><linearGradient id="linear-gradient" x1="59.76" y1="64.34" x2="59.76" y2="33.03" gradientUnits="userSpaceOnUse"><stop offset="0" stop-color="#fff"/><stop offset="1" stop-color="#3fa9f5"/></linearGradient></defs><g id="Layer_2" data-name="Layer 2"><g id="Layer_1-2" data-name="Layer 1"><path class="cls-2" d="M184.07,48.32a10.71,10.71,0,0,0-3-3.27,16.13,16.13,0,0,0-5.43-2.43q5-2.32,7-5.21a11.73,11.73,0,0,0,1.94-6.68q0-6.81-5.08-10.42T163.51,16.7H143.23V69.93h21.31q11.27,0,16.24-3.53t5-10.93a20.11,20.11,0,0,0-.33-3.54A11.12,11.12,0,0,0,184.07,48.32ZM155.78,26.23h9a9,9,0,0,1,5.45,1.59,5.25,5.25,0,0,1,2.17,4.53,5.25,5.25,0,0,1-.55,2.44,5.36,5.36,0,0,1-1.51,1.83,6.55,6.55,0,0,1-2.21,1.1,9.55,9.55,0,0,1-2.76.37h-9.61ZM171,58.58q-2,1.81-6,1.82h-9.17V47.88h9.61a9.78,9.78,0,0,1,4,.75A6.37,6.37,0,0,1,172,50.77a5.57,5.57,0,0,1,1,3.3A5.82,5.82,0,0,1,171,58.58Z"/><rect class="cls-2" x="195.36" y="16.7" width="12.55" height="53.23"/><path class="cls-2" d="M241.7,50.39h10.17L251.31,53a7.61,7.61,0,0,1-1,2.36,9.08,9.08,0,0,1-1.88,2.17,9.76,9.76,0,0,1-2.72,1.62,9.39,9.39,0,0,1-3.52.63A12.78,12.78,0,0,1,238,59a9.61,9.61,0,0,1-3.83-2.52,13,13,0,0,1-2.78-5,27.51,27.51,0,0,1-1-8.32,25.52,25.52,0,0,1,1.55-9.81A10.88,10.88,0,0,1,236,28.06a10.51,10.51,0,0,1,5.66-1.6,9.45,9.45,0,0,1,4.7,1.12,9,9,0,0,1,3.24,3.05,13.33,13.33,0,0,1,1.75,4.29h13.14a17.3,17.3,0,0,0-1.73-7,19.77,19.77,0,0,0-4.58-6.09,21.91,21.91,0,0,0-7.07-4.27A25.61,25.61,0,0,0,242,16a25.34,25.34,0,0,0-13.21,3.39,23.38,23.38,0,0,0-8.92,9.57,31.38,31.38,0,0,0-3.2,14.58,31.62,31.62,0,0,0,3,14.28,22.61,22.61,0,0,0,8.58,9.5,24.35,24.35,0,0,0,13,3.39,20.57,20.57,0,0,0,7.29-1.12,16.5,16.5,0,0,0,4.84-2.78,28.53,28.53,0,0,0,3.26-3.24v6.4h8.4V42l-23.35-.11Z"/><polygon class="cls-2" points="288.13 16.7 275.57 16.7 275.54 69.93 310.33 69.93 310.33 59.52 288.13 59.52 288.13 16.7"/><path class="cls-2" d="M334.26,16.7l-19,53.23h12.55l4-11.3h18l3.94,11.3h12.44l-19-53.23Zm.33,31.11,6.22-19.07,6.11,19.07Z"/><polygon class="cls-2" points="408.29 49.17 385.76 16.7 373.21 16.7 373.21 69.93 385.76 69.93 385.76 35.77 409.5 69.93 420.81 69.93 420.81 16.7 408.29 16.7 408.29 49.17"/><path class="cls-2" d="M474,29.53A20.67,20.67,0,0,0,465,20.4Q459,17.07,449.3,16.77c-1.15-.05-2.64-.08-4.45-.09H439.3l-4.93,0h-2.63V69.93H449q9.51,0,15.65-3.37a21.4,21.4,0,0,0,9.15-9.4,31.23,31.23,0,0,0,3-14.06A30.3,30.3,0,0,0,474,29.53ZM461.69,52.92a12.75,12.75,0,0,1-5.36,5.38A15.18,15.18,0,0,1,449.41,60h-5.08V26.68h5.15A15.45,15.45,0,0,1,457,28.43a11.77,11.77,0,0,1,5,5.35A20.81,20.81,0,0,1,463.77,43Q463.77,49.21,461.69,52.92Z"/><polygon class="cls-3" points="138.28 94.37 147.35 94.37 147.35 119.16 150.96 119.16 150.96 94.37 159.53 94.37 159.53 91.06 138.28 91.06 138.28 94.37"/><polygon class="cls-3" points="167.75 106.55 180.46 106.55 180.46 103.4 167.77 103.4 167.77 94.23 181.85 94.23 181.88 91.06 164.16 91.06 164.16 119.16 182.24 119.16 182.24 115.95 167.75 115.91 167.75 106.55"/><path class="cls-3" d="M194.14,95a7.49,7.49,0,0,1,4.31-1.2,6.87,6.87,0,0,1,3.4.8,6.44,6.44,0,0,1,2.29,2.14,8.27,8.27,0,0,1,1.19,3h3.82a9.61,9.61,0,0,0-1.65-4.53,10.21,10.21,0,0,0-3.69-3.29,11,11,0,0,0-5.26-1.23,12,12,0,0,0-6.48,1.67A10.69,10.69,0,0,0,188,97.24,19.47,19.47,0,0,0,186.6,105a19.56,19.56,0,0,0,1.4,7.82,10.85,10.85,0,0,0,4.09,5,11.62,11.62,0,0,0,6.46,1.72,11.84,11.84,0,0,0,4.39-.75,9.39,9.39,0,0,0,3.2-2.06,10,10,0,0,0,2.05-3,11.68,11.68,0,0,0,1-3.45h-3.82a8.92,8.92,0,0,1-1.19,3,6.4,6.4,0,0,1-5.69,3.07,6.81,6.81,0,0,1-5.86-2.75q-2-2.74-2-8.62a19,19,0,0,1,.9-6.37A7.29,7.29,0,0,1,194.14,95Z"/><polygon class="cls-3" points="233.71 91.06 233.71 103.03 218.56 103.03 218.56 91.06 214.96 91.06 214.96 119.16 218.56 119.16 218.56 106.2 233.71 106.2 233.71 119.16 237.31 119.16 237.31 91.06 233.71 91.06"/><path class="cls-2" d="M121.66,66.61a4,4,0,0,0-1.19-2.87L100.94,44.21l10.29-10.3a6.6,6.6,0,0,0,2.78.63,6.89,6.89,0,0,0,4.88-2,6.78,6.78,0,0,0,.09-9.58A6.55,6.55,0,0,0,114.19,21a6.93,6.93,0,0,0-6.82,6.82,6.59,6.59,0,0,0,1.32,4l-10,10.06L87.21,30.47,99.59,18.09a4.06,4.06,0,0,0,0-5.74l-2.28-2.27a6.8,6.8,0,0,0,1-3.35,6.56,6.56,0,0,0-1.93-4.79A6.78,6.78,0,0,0,86.75,2a6.79,6.79,0,0,0-.1,9.58,6.63,6.63,0,0,0,4.71,1.94h.09a6.86,6.86,0,0,0,3.63-1.11l2.21,2.21a.81.81,0,0,1,0,1.14L84.91,28.18,63.7,7A4,4,0,0,0,58,7L38.53,26.4,28.36,16.23a6.86,6.86,0,0,0,1-3.45A6.63,6.63,0,0,0,27.43,8a6.94,6.94,0,0,0-4.79-1.94,6.93,6.93,0,0,0-6.82,6.82,6.63,6.63,0,0,0,6.64,6.73h.09a6.79,6.79,0,0,0,3.54-1.06L36.23,28.69,23.38,41.54,13.24,31.4a6.74,6.74,0,0,0,1.06-3.55,6.57,6.57,0,0,0-1.94-4.79,6.77,6.77,0,0,0-9.58.09,6.79,6.79,0,0,0-.09,9.58A6.63,6.63,0,0,0,7.4,34.67a6.91,6.91,0,0,0,3.52-1L21.09,43.84,1.19,63.74a4,4,0,0,0,0,5.74L20.77,89.06,11.1,98.73A6.84,6.84,0,0,0,3,109.51a6.63,6.63,0,0,0,4.71,1.94h.08a6.92,6.92,0,0,0,6.82-6.82,6.53,6.53,0,0,0-1.06-3.7l9.57-9.57L34.5,102.8l-13,13a4.07,4.07,0,0,0,0,5.74L24,123.93a7.07,7.07,0,0,0-.3,1.83,6.61,6.61,0,0,0,6.65,6.72,6.88,6.88,0,0,0,4.87-2A6.71,6.71,0,1,0,25.71,121s0,0-.05,0l-1.82-1.82a.8.8,0,0,1,0-1.14l13-13L58,126.25a4.06,4.06,0,0,0,5.74,0L83,107l9.36,9.37a6.72,6.72,0,0,0,1,8.17,6.54,6.54,0,0,0,4.7,1.94h.09A6.78,6.78,0,1,0,94.58,114l-9.31-9.31L98.33,91.63l9.3,9.31a6.77,6.77,0,0,0-1.16,3.74,6.63,6.63,0,0,0,6.64,6.73h.09a6.85,6.85,0,0,0,4.79-2,6.94,6.94,0,0,0,2-4.79,6.63,6.63,0,0,0-1.94-4.79,6.64,6.64,0,0,0-8-1l-9.43-9.43,19.85-19.85A4,4,0,0,0,121.66,66.61Zm-10-41.29a3.67,3.67,0,0,1,2.54-1.08h0a3.37,3.37,0,0,1,2.41,1,3.59,3.59,0,0,1-5.08,5.08,3.4,3.4,0,0,1-1-2.46A3.67,3.67,0,0,1,111.69,25.32ZM93.94,9.22A3.65,3.65,0,0,1,91.4,10.3a3.34,3.34,0,0,1-2.45-1A3.59,3.59,0,0,1,94,4.23a3.39,3.39,0,0,1,1,2.46A3.67,3.67,0,0,1,93.94,9.22ZM25,15.28a3.62,3.62,0,0,1-2.53,1.07,3.47,3.47,0,0,1-2.46-1,3.4,3.4,0,0,1-1-2.46,3.62,3.62,0,0,1,1.07-2.53A3.67,3.67,0,0,1,22.68,9.3a3.38,3.38,0,0,1,3.44,3.44A3.67,3.67,0,0,1,25,15.28ZM10,30.34a3.52,3.52,0,0,1-5,.09,3.52,3.52,0,0,1,.09-5,3.59,3.59,0,0,1,2.53-1.08,3.38,3.38,0,0,1,2.46,1,3.42,3.42,0,0,1,1,2.46A3.59,3.59,0,0,1,10,30.34Zm.27,76.78A3.71,3.71,0,0,1,7.7,108.2a3.52,3.52,0,0,1-2.45-1,3.54,3.54,0,0,1,.09-5,3.67,3.67,0,0,1,2.58-1.07,3.36,3.36,0,0,1,3.4,3.44A3.67,3.67,0,0,1,10.24,107.12ZM28,123.27a3.61,3.61,0,0,1,2.57-1.08,3.32,3.32,0,0,1,2.41,1,3.59,3.59,0,0,1-5.07,5.07,3.38,3.38,0,0,1-1-2.45A3.59,3.59,0,0,1,28,123.27Zm67.67-6a3.67,3.67,0,0,1,2.54-1.08h0a3.37,3.37,0,0,1,2.41,1,3.54,3.54,0,0,1-.09,5,3.62,3.62,0,0,1-2.53,1.07,3.43,3.43,0,0,1-2.37-6Zm15.11-15a3.67,3.67,0,0,1,2.54-1.08,3.46,3.46,0,0,1,2.45,1,3.38,3.38,0,0,1,1,2.45,3.63,3.63,0,0,1-1.08,2.53,3.59,3.59,0,0,1-2.53,1.08,3.41,3.41,0,0,1-2.46-1,3.36,3.36,0,0,1-1-2.46A3.62,3.62,0,0,1,110.79,102.19Z"/><path class="cls-4" d="M96.27,76.69h-13a1.63,1.63,0,1,1,0-3.25h13a1.63,1.63,0,1,1,0,3.25m-22.74,0H67a1.63,1.63,0,0,1,0-3.25h6.5a1.63,1.63,0,0,1,0,3.25m-13,0h-13a1.63,1.63,0,1,1,0-3.25h13a1.63,1.63,0,1,1,0,3.25m-22.74,0h-6.5a1.63,1.63,0,0,1,0-3.25h6.5a1.63,1.63,0,1,1,0,3.25m-13,0H22.1a1.63,1.63,0,0,1,0-3.25h2.7a1.63,1.63,0,0,1,0,3.25"/><g class="cls-5"><g class="cls-6"><path class="cls-4" d="M86.51,85.62h-13a1.63,1.63,0,0,1,0-3.25h13a1.63,1.63,0,0,1,0,3.25m-22.75,0h-6.5a1.63,1.63,0,0,1,0-3.25h6.5a1.63,1.63,0,1,1,0,3.25m-13,0h-13a1.63,1.63,0,0,1,0-3.25h13a1.63,1.63,0,0,1,0,3.25"/></g></g><g class="cls-7"><g class="cls-8"><path class="cls-4" d="M77.23,94.54h-13a1.63,1.63,0,1,1,0-3.25h13a1.63,1.63,0,0,1,0,3.25m-22.75,0H48a1.63,1.63,0,0,1,0-3.25h6.5a1.63,1.63,0,1,1,0,3.25m-13,0h-.34a1.63,1.63,0,0,1,0-3.25h.34a1.63,1.63,0,0,1,0,3.25"/></g></g><path class="cls-9" d="M97.45,63.84a.79.79,0,0,1-.76.5H22.82a.79.79,0,0,1-.76-.5.81.81,0,0,1,.18-.9l23-23a.81.81,0,0,1,.58-.24.82.82,0,0,1,.58.24l6,6h0L60.6,54.1a1.61,1.61,0,0,0,1.15.48,1.59,1.59,0,0,0,1.14-.48A1.61,1.61,0,0,0,63,52l5-5a1.63,1.63,0,0,0-2.3-2.3l-5,5-1.27-1.27,6.21-6.21a1.63,1.63,0,0,0-2.3-2.3l-6.21,6.21-1.32-1.32L66.39,33.3A.84.84,0,0,1,67,33a.86.86,0,0,1,.59.24l29.7,29.67A.81.81,0,0,1,97.45,63.84Z"/></g></g></svg>