<?xml version="1.0" encoding="utf-8"?>
<!-- Generator: Adobe Illustrator 25.0.0, SVG Export Plug-In . SVG Version: 6.00 Build 0)  -->
<svg version="1.1" id="Layer_1" xmlns="http://www.w3.org/2000/svg" xmlns:xlink="http://www.w3.org/1999/xlink" x="0px" y="0px"
	 viewBox="0 0 190.3 52.9" style="enable-background:new 0 0 190.3 52.9;" xml:space="preserve">
<style type="text/css">
	.st0{clip-path:url(#SVGID_2_);}
	.st1{clip-path:url(#SVGID_4_);}
	.st2{clip-path:url(#SVGID_6_);}
	.st3{fill:#2B74A8;}
	.st4{clip-path:url(#SVGID_8_);}
	.st5{fill:url(#SVGID_9_);}
	.st6{clip-path:url(#SVGID_11_);}
	.st7{fill:#FFFFFF;}
	.st8{opacity:0.75;}
	.st9{clip-path:url(#SVGID_13_);}
	.st10{opacity:0.5;}
	.st11{clip-path:url(#SVGID_15_);}
	.st12{fill:#3FA9F5;}
</style>
<g id="Layer_2_1_">
	<g id="Layer_1-2">
		<g id="Full_Color_Logo">
			<g>
				<defs>
					<rect id="SVGID_1_" width="190.3" height="52.9"/>
				</defs>
				<clipPath id="SVGID_2_">
					<use xlink:href="#SVGID_1_"  style="overflow:visible;"/>
				</clipPath>
				<g class="st0">
					<g>
						<defs>
							<rect id="SVGID_3_" width="190.3" height="52.9"/>
						</defs>
						<clipPath id="SVGID_4_">
							<use xlink:href="#SVGID_3_"  style="overflow:visible;"/>
						</clipPath>
						<g class="st1">
							<g>
								<defs>
									<rect id="SVGID_5_" width="190.3" height="52.9"/>
								</defs>
								<clipPath id="SVGID_6_">
									<use xlink:href="#SVGID_5_"  style="overflow:visible;"/>
								</clipPath>
								<g class="st2">
									<path class="st3" d="M23.2,49.6L1.3,27.6c-0.6-0.6-0.6-1.5,0-2.1c0,0,0,0,0,0L23.2,3.6c0.6-0.6,1.5-0.6,2.1,0l21.9,21.9
										c0.6,0.6,0.6,1.5,0,2.1c0,0,0,0,0,0L25.3,49.6C24.8,50.1,23.8,50.1,23.2,49.6"/>
								</g>
							</g>
							<g>
								<defs>
									<path id="SVGID_7_" d="M26,12.9l-4.6,5L19,15.5c-0.4-0.4-1-0.4-1.4,0l-9.2,9.2c-0.4,0.4-0.3,1,0.1,1.4
										c0.2,0.1,0.4,0.2,0.6,0.2h29.5c0.6,0,1-0.5,0.9-1c0-0.2-0.1-0.4-0.3-0.6L27.4,12.8C27,12.4,26.4,12.4,26,12.9"/>
								</defs>
								<clipPath id="SVGID_8_">
									<use xlink:href="#SVGID_7_"  style="overflow:visible;"/>
								</clipPath>
								<g class="st4">
									
										<linearGradient id="SVGID_9_" gradientUnits="userSpaceOnUse" x1="-716.3583" y1="785.1505" x2="-715.3583" y2="785.1505" gradientTransform="matrix(0 -13.79 13.79 0 -10803.3799 -9852.5498)">
										<stop  offset="0" style="stop-color:#FFFFFF"/>
										<stop  offset="1" style="stop-color:#3FA9F5"/>
									</linearGradient>
									<rect x="7.8" y="12.5" class="st5" width="32.1" height="13.8"/>
								</g>
							</g>
							<g>
								<defs>
									<rect id="SVGID_10_" width="190.3" height="52.9"/>
								</defs>
								<clipPath id="SVGID_11_">
									<use xlink:href="#SVGID_10_"  style="overflow:visible;"/>
								</clipPath>
								<g class="st6">
									<path class="st3" d="M38.6,27H9.1c-0.9,0-1.6-0.7-1.6-1.6c0-0.4,0.2-0.9,0.5-1.2l9.1-9.2c0.6-0.6,1.6-0.6,2.3,0l1.9,2
										l4.2-4.5c0.3-0.3,0.7-0.5,1.2-0.5c0.4,0,0.9,0.2,1.2,0.5l11.9,11.8c0.6,0.6,0.7,1.6,0.1,2.3C39.5,26.8,39,27,38.6,27
										 M18.3,15.8c-0.1,0-0.2,0-0.2,0.1l-9.2,9.2c-0.1,0.1-0.1,0.2-0.1,0.4c0,0.1,0.2,0.2,0.3,0.2h29.5c0.1,0,0.3-0.1,0.3-0.2
										c0-0.1,0-0.3-0.1-0.4L27,13.3c-0.1-0.1-0.2-0.1-0.2-0.1c-0.1,0-0.2,0-0.2,0.1l-4.6,5c-0.1,0.1-0.3,0.2-0.5,0.2
										c-0.2,0-0.3-0.1-0.5-0.2l-2.4-2.4C18.5,15.8,18.4,15.8,18.3,15.8"/>
									<path class="st3" d="M48.6,26.6c0-0.4-0.2-0.8-0.5-1.1l-7.8-7.8l4.1-4.1c1.4,0.6,3,0,3.6-1.4c0.4-1,0.2-2.2-0.5-3
										c-0.5-0.5-1.2-0.8-1.9-0.8c-1.5,0-2.7,1.2-2.7,2.7c0,0.6,0.2,1.1,0.5,1.6l-4,4l-4.6-4.6l4.9-4.9c0.3-0.3,0.5-0.7,0.5-1.1
										c0-0.4-0.2-0.8-0.5-1.2L38.8,4c0.2-0.4,0.4-0.9,0.4-1.3c0-0.7-0.3-1.4-0.8-1.9c-1.1-1.1-2.8-1.1-3.9,0
										c-1.1,1.1-1.1,2.8,0,3.9c0.5,0.5,1.2,0.8,1.9,0.8l0,0C37,5.4,37.5,5.3,38,5l0.9,0.9C39,6,39,6.2,38.9,6.3c0,0,0,0,0,0
										l-4.9,5l-8.5-8.6c-0.6-0.6-1.7-0.6-2.3,0l-7.8,7.8l-4.1-4.1c0.3-0.4,0.4-0.9,0.4-1.4c0-0.7-0.2-1.4-0.7-1.9
										c-1.1-1.1-2.8-1.1-3.9,0C6.6,3.7,6.3,4.4,6.3,5.1c0,1.5,1.2,2.7,2.6,2.7c0,0,0,0,0.1,0l0,0c0.5,0,1-0.1,1.4-0.4l4.1,4
										l-5.1,5.2l-4-4c0.3-0.4,0.4-0.9,0.4-1.4c0-0.7-0.3-1.5-0.8-2C4.4,8.7,3.7,8.4,3,8.4c-0.7,0-1.4,0.3-1.9,0.8
										C0,10.3,0,12,1.1,13.1c0.5,0.5,1.2,0.8,1.9,0.8c0.5,0,1-0.1,1.4-0.4l4,4.1l-8,7.9c-0.6,0.6-0.6,1.7,0,2.3l7.8,7.8l-3.9,3.9
										c-1.3-0.7-3-0.2-3.7,1.1c-0.6,1-0.4,2.3,0.4,3.2c0.5,0.5,1.2,0.8,1.9,0.8l0,0c0.7,0,1.4-0.3,1.9-0.8
										c0.5-0.5,0.8-1.2,0.8-1.9c0-0.5-0.1-1-0.4-1.5l3.8-3.8l4.6,4.5l-5.2,5.2c-0.6,0.6-0.6,1.7,0,2.3l1,1
										c-0.1,0.2-0.1,0.5-0.1,0.7c0,1.5,1.1,2.7,2.6,2.7c0,0,0.1,0,0.1,0c0.7,0,1.5-0.3,2-0.8c1.1-1,1.1-2.7,0-3.8s-2.7-1.1-3.8,0
										c0,0,0,0,0,0l0,0l-0.7-0.7c-0.1-0.1-0.1-0.3,0-0.5l5.1-5.1l8.4,8.4c0.3,0.3,0.7,0.5,1.1,0.5c0.4,0,0.8-0.2,1.1-0.5l7.7-7.7
										l3.7,3.7c-0.6,1-0.5,2.4,0.4,3.3c0.5,0.5,1.2,0.8,1.9,0.8l0,0c1.5,0,2.7-1.2,2.7-2.7c0-1.5-1.2-2.7-2.7-2.7
										c-0.5,0-1,0.1-1.4,0.4L34,41.8l5.2-5.2l3.8,3.7c-0.3,0.4-0.5,1-0.5,1.5c0,1.5,1.2,2.7,2.6,2.7c0,0,0,0,0,0l0,0
										c0.7,0,1.4-0.3,1.9-0.8c0.5-0.5,0.8-1.2,0.8-1.9c0-0.7-0.3-1.4-0.8-1.9c-0.5-0.5-1.2-0.8-1.9-0.8c-0.5,0-0.9,0.1-1.3,0.4
										l-3.8-3.8l7.9-7.9C48.4,27.4,48.6,27,48.6,26.6 M44.6,10.1c0.3-0.3,0.6-0.4,1-0.4l0,0c0.4,0,0.7,0.1,1,0.4
										c0.4,0.7,0.3,1.6-0.4,2c-0.5,0.3-1.1,0.3-1.6,0c-0.3-0.3-0.4-0.6-0.4-1C44.2,10.7,44.3,10.3,44.6,10.1 M37.5,3.7
										c-0.3,0.3-0.6,0.4-1,0.4c-0.4,0-0.7-0.1-1-0.4c-0.6-0.5-0.6-1.4,0-2c0,0,0,0,0,0c0.5-0.6,1.4-0.6,2,0c0,0,0,0,0,0
										c0.3,0.3,0.4,0.6,0.4,1C37.9,3.1,37.7,3.5,37.5,3.7 M10,6.1C9.7,6.4,9.4,6.5,9,6.5c-0.4,0-0.7-0.1-1-0.4
										c-0.3-0.3-0.4-0.6-0.4-1c0-0.8,0.7-1.4,1.4-1.4c0.4,0,0.7,0.1,1,0.4c0.3,0.3,0.4,0.6,0.4,1C10.4,5.5,10.3,5.8,10,6.1
										 M4,12.1c-0.6,0.5-1.4,0.5-2,0c-0.6-0.5-0.6-1.4,0-2c0,0,0,0,0,0c0.3-0.3,0.6-0.4,1-0.4c0.7,0,1.4,0.5,1.4,1.3
										c0,0.1,0,0.1,0,0.2C4.4,11.5,4.2,11.8,4,12.1 M4.1,42.7c-0.3,0.3-0.6,0.4-1,0.4c-0.4,0-0.7-0.1-1-0.4c-0.6-0.5-0.6-1.4,0-2
										c0,0,0,0,0,0c0.3-0.3,0.6-0.4,1-0.4c0.4,0,0.7,0.1,1,0.4c0.3,0.3,0.4,0.6,0.4,1C4.5,42.1,4.3,42.5,4.1,42.7 M11.1,49.2
										c0.3-0.3,0.6-0.4,1-0.4c0.4,0,0.7,0.1,1,0.4c0.4,0.7,0.3,1.6-0.4,2c-0.5,0.3-1.1,0.3-1.6,0c-0.3-0.3-0.4-0.6-0.4-1
										C10.8,49.8,10.9,49.4,11.1,49.2 M38.2,46.7c0.3-0.3,0.6-0.4,1-0.4l0,0c0.4,0,0.7,0.1,1,0.4c0.6,0.5,0.6,1.4,0,2
										c0,0,0,0,0,0c-0.3,0.3-0.6,0.4-1,0.4c-0.4,0-0.7-0.1-1-0.4C37.6,48.2,37.6,47.3,38.2,46.7C38.2,46.7,38.2,46.7,38.2,46.7
										 M44.2,40.7c0.3-0.3,0.6-0.4,1-0.4c0.4,0,0.7,0.1,1,0.4c0.3,0.3,0.4,0.6,0.4,1c0,0.4-0.2,0.7-0.4,1c-0.3,0.3-0.6,0.4-1,0.4
										c-0.4,0-0.7-0.1-1-0.4c-0.3-0.3-0.4-0.6-0.4-1C43.8,41.4,43.9,41,44.2,40.7 M47.1,26.7L24.5,49.5c-0.1,0.1-0.1,0.1-0.2,0.1
										c-0.1,0-0.2,0-0.2-0.1l0,0l-8.8-8.8l-0.1-0.1c0,0-0.1-0.1-0.1-0.1l-5.3-5.3l-0.1-0.1c0,0-0.1-0.1-0.1-0.1l-8.2-8.2
										c-0.1-0.1-0.1-0.3,0-0.5c0,0,0,0,0,0L24,3.7c0.1-0.1,0.1-0.1,0.2-0.1c0.1,0,0.2,0,0.2,0.1l22.7,22.7
										c0.1,0.1,0.1,0.1,0.1,0.2C47.3,26.7,47.2,26.8,47.1,26.7"/>
									<path class="st3" d="M24.6,21.8c-0.2,0-0.3-0.1-0.5-0.2l-5.3-5.3c-0.3-0.3-0.3-0.7,0-0.9s0.7-0.3,0.9,0l0,0l5.3,5.3
										c0.3,0.2,0.3,0.7,0,0.9c0,0,0,0,0,0C25,21.7,24.8,21.8,24.6,21.8"/>
									<path class="st3" d="M22.9,19.9c-0.2,0-0.3-0.1-0.5-0.2c-0.2-0.3-0.2-0.7,0-0.9l2.9-2.9c0.3-0.3,0.7-0.3,0.9,0
										s0.3,0.7,0,0.9l0,0l-2.9,2.9C23.2,19.8,23.1,19.9,22.9,19.9"/>
									<path class="st3" d="M24.3,21.3c-0.2,0-0.3-0.1-0.5-0.2c-0.3-0.2-0.3-0.7,0-0.9c0,0,0,0,0,0l2.4-2.4c0.3-0.3,0.7-0.3,0.9,0
										s0.3,0.7,0,0.9l-2.4,2.4C24.7,21.2,24.5,21.3,24.3,21.3"/>
									<path class="st7" d="M38.4,30.6h-5.2c-0.4,0-0.6-0.3-0.6-0.7c0-0.4,0.3-0.6,0.6-0.6h5.2c0.4,0,0.6,0.3,0.6,0.7
										C39.1,30.3,38.8,30.6,38.4,30.6 M29.4,30.6h-2.6c-0.4,0-0.6-0.3-0.6-0.7c0-0.4,0.3-0.6,0.6-0.6h2.6c0.4,0,0.7,0.3,0.7,0.6
										C30,30.3,29.7,30.6,29.4,30.6C29.4,30.6,29.4,30.6,29.4,30.6 M24.2,30.6H19c-0.4,0-0.6-0.3-0.6-0.7c0-0.4,0.3-0.6,0.6-0.6
										h5.2c0.4,0,0.7,0.3,0.7,0.6C24.8,30.3,24.6,30.6,24.2,30.6C24.2,30.6,24.2,30.6,24.2,30.6 M15.1,30.6h-2.6
										c-0.4,0-0.6-0.3-0.6-0.7c0-0.4,0.3-0.6,0.6-0.6h2.6c0.4,0,0.6,0.3,0.6,0.7C15.7,30.3,15.4,30.6,15.1,30.6 M9.9,30.6H8.8
										c-0.4,0-0.6-0.3-0.6-0.7c0-0.4,0.3-0.6,0.6-0.6h1.1c0.4,0,0.6,0.3,0.6,0.7C10.5,30.3,10.3,30.6,9.9,30.6"/>
									<g class="st8">
										<g>
											<defs>
												<rect id="SVGID_12_" x="14.4" y="32.9" width="20.8" height="1.3"/>
											</defs>
											<clipPath id="SVGID_13_">
												<use xlink:href="#SVGID_12_"  style="overflow:visible;"/>
											</clipPath>
											<g class="st9">
												<path class="st7" d="M34.5,34.2h-5.2c-0.4,0-0.7-0.2-0.7-0.6s0.2-0.7,0.6-0.7c0.1,0,0.1,0,0.2,0h5.2
													c0.4,0,0.6,0.4,0.6,0.7C35.1,33.9,34.8,34.1,34.5,34.2 M25.4,34.2h-2.6c-0.4,0-0.6-0.4-0.6-0.7c0-0.3,0.3-0.5,0.6-0.6
													h2.6c0.4,0,0.7,0.2,0.7,0.6s-0.2,0.7-0.6,0.7C25.6,34.2,25.5,34.2,25.4,34.2 M20.3,34.2h-5.2c-0.4,0-0.6-0.4-0.6-0.7
													c0-0.3,0.3-0.5,0.6-0.6h5.2c0.4,0,0.7,0.2,0.7,0.6s-0.2,0.7-0.6,0.7C20.4,34.2,20.3,34.2,20.3,34.2"/>
											</g>
										</g>
									</g>
									<g class="st10">
										<g>
											<defs>
												<rect id="SVGID_14_" x="15.8" y="36.4" width="15.7" height="1.3"/>
											</defs>
											<clipPath id="SVGID_15_">
												<use xlink:href="#SVGID_14_"  style="overflow:visible;"/>
											</clipPath>
											<g class="st11">
												<path class="st7" d="M30.8,37.7h-5.2c-0.4,0-0.6-0.4-0.6-0.7c0-0.3,0.3-0.5,0.6-0.6h5.2c0.4,0,0.7,0.2,0.7,0.6
													s-0.2,0.7-0.6,0.7C30.9,37.7,30.9,37.7,30.8,37.7 M21.7,37.7h-2.6c-0.4,0-0.7-0.2-0.7-0.6s0.2-0.7,0.6-0.7
													c0.1,0,0.1,0,0.2,0h2.6c0.4,0,0.7,0.2,0.7,0.6s-0.2,0.7-0.6,0.7C21.8,37.7,21.8,37.7,21.7,37.7 M16.6,37.7h-0.1
													c-0.4,0-0.6-0.4-0.6-0.7c0-0.3,0.3-0.5,0.6-0.6h0.1c0.4,0,0.7,0.2,0.7,0.6s-0.2,0.7-0.6,0.7
													C16.7,37.7,16.6,37.7,16.6,37.7"/>
											</g>
										</g>
									</g>
									<path class="st3" d="M57.2,27.9V6.7h8.1c2.9,0,5,0.5,6.3,1.4c1.3,0.9,2.1,2.5,2,4.1c0,0.9-0.3,1.9-0.8,2.7
										c-0.7,0.9-1.7,1.6-2.8,2.1c0.8,0.2,1.5,0.5,2.2,1c0.5,0.3,0.9,0.8,1.2,1.3c0.3,0.4,0.4,0.9,0.5,1.4
										c0.1,0.5,0.1,0.9,0.1,1.4c0.1,1.7-0.6,3.3-2,4.4c-1.3,0.9-3.5,1.4-6.5,1.4H57.2z M62.2,15.2H66c0.4,0,0.7,0,1.1-0.1
										c0.3-0.1,0.6-0.2,0.9-0.4c0.3-0.2,0.5-0.4,0.6-0.7c0.1-0.3,0.2-0.7,0.2-1c0-0.7-0.3-1.4-0.8-1.8c-0.6-0.4-1.4-0.7-2.2-0.6
										h-3.6L62.2,15.2z M62.2,24.1h3.7c0.9,0.1,1.7-0.2,2.4-0.7c0.5-0.5,0.8-1.1,0.8-1.8c0-0.5-0.1-0.9-0.4-1.3
										c-0.3-0.4-0.6-0.7-1.1-0.9c-0.5-0.2-1-0.3-1.6-0.3h-3.8L62.2,24.1z"/>
									<rect x="78" y="6.7" class="st3" width="5" height="21.2"/>
									<path class="st3" d="M96.3,28.2c-1.8,0-3.6-0.4-5.2-1.4c-1.5-0.9-2.7-2.2-3.4-3.8c-0.8-1.8-1.3-3.7-1.2-5.7
										c-0.1-2,0.4-4,1.3-5.8c0.8-1.6,2-2.9,3.6-3.8c2.7-1.5,6-1.8,8.9-0.7c1,0.4,2,1,2.8,1.7c0.8,0.7,1.4,1.5,1.8,2.4
										c0.4,0.9,0.7,1.8,0.7,2.8h-5.2c-0.1-0.6-0.4-1.2-0.7-1.7c-0.3-0.5-0.8-0.9-1.3-1.2c-0.6-0.3-1.2-0.5-1.9-0.4
										c-0.8,0-1.6,0.2-2.3,0.6c-0.8,0.5-1.3,1.2-1.7,2.1c-0.5,1.3-0.7,2.6-0.6,3.9c0,1.1,0.1,2.2,0.4,3.3c0.2,0.7,0.6,1.4,1.1,2
										c0.4,0.4,0.9,0.8,1.5,1c0.5,0.2,1.1,0.3,1.7,0.3c0.5,0,1-0.1,1.4-0.2c0.4-0.1,0.8-0.3,1.1-0.6c0.3-0.3,0.5-0.5,0.7-0.9
										c0.2-0.3,0.3-0.6,0.4-0.9l0.2-1h-4v-3.5l9.3,0v11.2h-3.3v-2.5c-0.4,0.5-0.8,0.9-1.3,1.3c-0.6,0.5-1.2,0.9-1.9,1.1
										C98.3,28.1,97.3,28.2,96.3,28.2"/>
									<polygon class="st3" points="110,6.7 115,6.7 115,23.8 123.9,23.8 123.9,27.9 110,27.9 									"/>
									<path class="st3" d="M125.8,27.9l7.6-21.2h5.2l7.6,21.2h-5l-1.6-4.5h-7.2l-1.6,4.5H125.8z M133.5,19.1h4.9l-2.5-7.6
										L133.5,19.1z"/>
									<polygon class="st3" points="163,6.7 167.9,6.7 167.9,27.9 163.4,27.9 154,14.3 154,27.9 148.9,27.9 148.9,6.7 154,6.7 
										163,19.6 									"/>
									<path class="st3" d="M172.3,6.7h5.2c0.7,0,1.3,0,1.8,0c2.2,0,4.3,0.5,6.3,1.4c1.5,0.8,2.8,2.1,3.6,3.7
										c0.8,1.7,1.2,3.5,1.1,5.4c0,1.9-0.4,3.9-1.2,5.6c-0.8,1.6-2.1,2.9-3.6,3.8c-1.9,1-4.1,1.4-6.2,1.3h-6.9L172.3,6.7z
										 M177.3,10.7v13.3h2c1,0,1.9-0.2,2.8-0.7c0.9-0.5,1.7-1.2,2.1-2.1c0.6-1.2,0.9-2.6,0.8-4c0-1.3-0.2-2.5-0.7-3.7
										c-0.4-0.9-1.1-1.7-2-2.1c-0.9-0.5-2-0.7-3-0.7L177.3,10.7z"/>
									<polygon class="st12" points="55.2,37.7 55.2,36.3 63.7,36.3 63.7,37.7 60.2,37.7 60.2,47.6 58.8,47.6 58.8,37.7 									
										"/>
									<polygon class="st12" points="65.5,47.6 65.5,36.3 72.6,36.3 72.6,37.6 67,37.6 67,41.3 72,41.3 72,42.5 66.9,42.5 
										66.9,46.3 72.7,46.3 72.7,47.6 									"/>
									<path class="st12" d="M79.2,36.2c0.7,0,1.5,0.2,2.1,0.5c0.6,0.3,1.1,0.8,1.5,1.3c0.4,0.5,0.6,1.2,0.7,1.8H82
										c-0.1-0.4-0.2-0.8-0.5-1.2c-0.2-0.4-0.5-0.6-0.9-0.8c-0.4-0.2-0.9-0.3-1.4-0.3c-0.6,0-1.2,0.1-1.7,0.5
										c-0.5,0.4-0.9,0.9-1.1,1.5c-0.3,0.8-0.4,1.7-0.4,2.5c-0.1,1.2,0.2,2.4,0.8,3.4c0.5,0.7,1.4,1.1,2.3,1.1
										c0.5,0,0.9-0.1,1.4-0.3c0.4-0.2,0.7-0.5,0.9-0.9c0.2-0.4,0.4-0.8,0.5-1.2h1.5c-0.1,0.5-0.2,0.9-0.4,1.4
										c-0.2,0.4-0.5,0.8-0.8,1.2c-0.4,0.4-0.8,0.6-1.3,0.8c-0.6,0.2-1.2,0.3-1.8,0.3c-0.9,0-1.8-0.2-2.6-0.7
										c-0.7-0.5-1.3-1.2-1.7-2c-0.8-2-0.8-4.2,0-6.2c0.3-0.8,0.9-1.5,1.6-2C77.4,36.3,78.3,36.1,79.2,36.2"/>
									<polygon class="st12" points="93.3,42.4 87.2,42.4 87.2,47.6 85.8,47.6 85.8,36.3 87.2,36.3 87.2,41.1 93.3,41.1 
										93.3,36.3 94.7,36.3 94.7,47.6 93.3,47.6 									"/>
								</g>
							</g>
						</g>
					</g>
				</g>
			</g>
		</g>
	</g>
</g>
</svg>
