<svg xmlns="http://www.w3.org/2000/svg" xmlns:xlink="http://www.w3.org/1999/xlink" viewBox="0 0 198.53 232.77"><defs><style>.cls-1{fill:none;}.cls-2{fill:#2b74a8;}.cls-3{fill:url(#linear-gradient);}.cls-4{fill:#fff;}.cls-5{opacity:0.75;}.cls-6{clip-path:url(#clip-path);}.cls-7{opacity:0.5;}.cls-8{clip-path:url(#clip-path-2);}</style><linearGradient id="linear-gradient" x1="97.8" y1="88.21" x2="97.8" y2="45.29" gradientUnits="userSpaceOnUse"><stop offset="0" stop-color="#fff"/><stop offset="1" stop-color="#3fa9f5"/></linearGradient><clipPath id="clip-path"><rect class="cls-1" x="65.43" y="112.92" width="71.26" height="4.45"/></clipPath><clipPath id="clip-path-2"><rect class="cls-1" x="70.06" y="125.16" width="53.91" height="4.45"/></clipPath></defs><g id="Layer_2" data-name="Layer 2"><g id="Layer_1-2" data-name="Layer 1"><path class="cls-2" d="M182.66,91.32A5.52,5.52,0,0,0,181,87.38L154.25,60.6l14.11-14.11a9.21,9.21,0,0,0,3.81.86,9.41,9.41,0,0,0,6.68-2.78A9.3,9.3,0,0,0,179,31.43a9,9,0,0,0-6.57-2.65,9.5,9.5,0,0,0-9.34,9.35,9,9,0,0,0,1.81,5.54L151.1,57.45,135.43,41.78l17-17a5.56,5.56,0,0,0,0-7.87l-3.12-3.12a9.32,9.32,0,0,0,1.31-4.59,9.09,9.09,0,0,0-2.66-6.57,9.31,9.31,0,0,0-13.14.13,9.3,9.3,0,0,0-.12,13.13,9,9,0,0,0,6.45,2.66h.12a9.32,9.32,0,0,0,5-1.52l3,3a1.12,1.12,0,0,1,0,1.57l-17,17L103.2,9.55a5.57,5.57,0,0,0-7.87,0L68.69,36.19,54.76,22.25a9.35,9.35,0,0,0,1.37-4.72A9,9,0,0,0,53.48,11a9.41,9.41,0,0,0-15.92,6.69,9.08,9.08,0,0,0,9.11,9.22h.12a9.33,9.33,0,0,0,4.85-1.45L65.55,39.34,47.93,57,34,43a9.34,9.34,0,0,0,1.45-4.86,9.06,9.06,0,0,0-2.65-6.57,9.3,9.3,0,0,0-13.14.12,9.31,9.31,0,0,0-.13,13.14A9.11,9.11,0,0,0,26,47.52a9.5,9.5,0,0,0,4.82-1.36L44.78,60.1,17.51,87.38a5.56,5.56,0,0,0,0,7.87L44.35,122.1,31.09,135.35a9.37,9.37,0,0,0-11.17,14.77,9.05,9.05,0,0,0,6.45,2.66h.12a9.5,9.5,0,0,0,9.35-9.35,9,9,0,0,0-1.46-5.07L47.5,125.24l15.68,15.68L45.4,158.7a5.58,5.58,0,0,0,0,7.86l3.35,3.34a9.54,9.54,0,0,0-.41,2.5,9.07,9.07,0,0,0,9.11,9.22,9.43,9.43,0,0,0,6.68-2.78,9.2,9.2,0,1,0-13-13l-.06.08-2.51-2.5a1.1,1.1,0,0,1,0-1.56l17.77-17.78,29,29a5.54,5.54,0,0,0,7.87,0l26.42-26.41,12.83,12.84a9.23,9.23,0,0,0,1.32,11.21,9.08,9.08,0,0,0,6.45,2.66h.12a9.45,9.45,0,0,0,6.57-2.79,9.18,9.18,0,0,0-11.38-14.3l-12.77-12.77,17.91-17.9,12.76,12.76a9.36,9.36,0,0,0-1.6,5.13,9.08,9.08,0,0,0,9.11,9.23h.12a9.5,9.5,0,0,0,9.34-9.35,9,9,0,0,0-2.65-6.56,9.14,9.14,0,0,0-11-1.44l-12.92-12.92L181,95.25A5.53,5.53,0,0,0,182.66,91.32ZM169,34.71a5,5,0,0,1,3.48-1.48h.06a4.63,4.63,0,0,1,3.3,1.35,4.93,4.93,0,0,1-7,7,4.62,4.62,0,0,1-1.35-3.37A5,5,0,0,1,169,34.71ZM144.65,12.64a5,5,0,0,1-3.47,1.48,4.56,4.56,0,0,1-3.36-1.36,4.83,4.83,0,0,1,.12-6.83,4.85,4.85,0,0,1,6.84-.13,4.61,4.61,0,0,1,1.35,3.37A5,5,0,0,1,144.65,12.64Zm-94.44,8.3a5,5,0,0,1-3.48,1.48,4.74,4.74,0,0,1-3.36-1.36A4.65,4.65,0,0,1,42,17.7a5.06,5.06,0,0,1,5-4.95,4.67,4.67,0,0,1,3.37,1.36,4.59,4.59,0,0,1,1.35,3.36A5,5,0,0,1,50.21,20.94ZM29.55,41.59a4.75,4.75,0,1,1-6.71-6.71,4.92,4.92,0,0,1,3.47-1.47A4.61,4.61,0,0,1,31,38.12,5,5,0,0,1,29.55,41.59Zm.36,105.26a5,5,0,0,1-3.47,1.48,4.72,4.72,0,0,1-3.24-8.2,5,5,0,0,1,3.53-1.47,4.61,4.61,0,0,1,4.66,4.72A5,5,0,0,1,29.91,146.85ZM54.27,169a5,5,0,0,1,3.53-1.47,4.63,4.63,0,0,1,3.31,1.35,4.93,4.93,0,0,1-7,7,4.65,4.65,0,0,1-1.36-3.36A5,5,0,0,1,54.27,169Zm92.78-8.26a5,5,0,0,1,3.47-1.48h.06a4.63,4.63,0,0,1,3.3,1.35,4.85,4.85,0,0,1-.12,6.84,5,5,0,0,1-3.48,1.48,4.71,4.71,0,0,1-3.23-8.19Zm20.71-20.63a5,5,0,0,1,3.47-1.48A4.8,4.8,0,0,1,174.6,140a4.59,4.59,0,0,1,1.35,3.36,5.06,5.06,0,0,1-4.95,4.95,4.65,4.65,0,0,1-4.72-4.72A5,5,0,0,1,167.76,140.09Z"/><path class="cls-3" d="M149.47,87.52a1.07,1.07,0,0,1-1,.69H47.16a1.12,1.12,0,0,1-.79-1.92L77.93,54.73a1.12,1.12,0,0,1,.79-.33,1.14,1.14,0,0,1,.79.33L87.8,63l0,0L99,74.18a2.22,2.22,0,0,0,3.33-2.92l6.9-6.91a2.22,2.22,0,1,0-3.14-3.15l-6.89,6.89-1.74-1.75,8.51-8.51a2.23,2.23,0,1,0-3.15-3.15l-8.51,8.51-1.81-1.81,14.43-15.72a1.17,1.17,0,0,1,.81-.37,1.15,1.15,0,0,1,.82.33l40.71,40.67A1.08,1.08,0,0,1,149.47,87.52Z"/><path class="cls-4" d="M147.85,105.14H130a2.23,2.23,0,1,1,0-4.46h17.81a2.23,2.23,0,1,1,0,4.46m-31.17,0h-8.91a2.23,2.23,0,1,1,0-4.46h8.91a2.23,2.23,0,0,1,0,4.46m-17.82,0H81a2.23,2.23,0,0,1,0-4.46H98.86a2.23,2.23,0,1,1,0,4.46m-31.18,0h-8.9a2.23,2.23,0,1,1,0-4.46h8.9a2.23,2.23,0,1,1,0,4.46m-17.81,0h-3.7a2.23,2.23,0,0,1,0-4.46h3.7a2.23,2.23,0,0,1,0,4.46"/><g class="cls-5"><g class="cls-6"><path class="cls-4" d="M134.47,117.37H116.65a2.23,2.23,0,1,1,0-4.45h17.82a2.23,2.23,0,0,1,0,4.45m-31.18,0H94.38a2.23,2.23,0,1,1,0-4.45h8.91a2.23,2.23,0,0,1,0,4.45m-17.82,0H67.66a2.23,2.23,0,1,1,0-4.45H85.47a2.23,2.23,0,1,1,0,4.45"/></g></g><g class="cls-7"><g class="cls-8"><path class="cls-4" d="M121.74,129.61H103.93a2.23,2.23,0,1,1,0-4.45h17.81a2.23,2.23,0,1,1,0,4.45m-31.18,0H81.65a2.23,2.23,0,0,1,0-4.45h8.91a2.23,2.23,0,1,1,0,4.45m-17.81,0h-.46a2.23,2.23,0,1,1,0-4.45h.46a2.23,2.23,0,0,1,0,4.45"/></g></g><path class="cls-2" d="M0,232.33V200.65H12.07c4.3,0,7.45.72,9.47,2.15a7.13,7.13,0,0,1,3,6.2,6.93,6.93,0,0,1-1.15,4,9.75,9.75,0,0,1-4.15,3.1,9.8,9.8,0,0,1,3.23,1.45,6.49,6.49,0,0,1,1.82,1.95,6.7,6.7,0,0,1,.8,2.15,12,12,0,0,1,.19,2.1c0,2.94-1,5.1-2.95,6.51s-5.2,2.1-9.67,2.1Zm7.47-19h5.72a6,6,0,0,0,1.64-.22,3.9,3.9,0,0,0,1.32-.66,3.25,3.25,0,0,0,.9-1.08,3.3,3.3,0,0,0,.32-1.46,3.12,3.12,0,0,0-1.29-2.69,5.34,5.34,0,0,0-3.24-.94H7.47Zm0,13.28h5.46a5.2,5.2,0,0,0,3.58-1.09,3.45,3.45,0,0,0,1.21-2.68,3.27,3.27,0,0,0-.58-2,3.66,3.66,0,0,0-1.59-1.27,5.81,5.81,0,0,0-2.36-.45H7.47Z"/><rect class="cls-2" x="31.02" y="200.65" width="7.47" height="31.68"/><path class="cls-2" d="M58.34,232.77a14.45,14.45,0,0,1-7.72-2,13.39,13.39,0,0,1-5.1-5.65,20.82,20.82,0,0,1,.09-17.18,13.91,13.91,0,0,1,5.31-5.69,15,15,0,0,1,7.86-2,15.24,15.24,0,0,1,5.45.93,13.21,13.21,0,0,1,4.2,2.54,12,12,0,0,1,2.73,3.63,10.31,10.31,0,0,1,1,4.19H64.37a7.93,7.93,0,0,0-1-2.56,5.35,5.35,0,0,0-1.93-1.82,5.7,5.7,0,0,0-2.79-.66,6.23,6.23,0,0,0-3.38.95,6.48,6.48,0,0,0-2.45,3.13,15.39,15.39,0,0,0-.92,5.84,16.6,16.6,0,0,0,.62,5,7.63,7.63,0,0,0,1.66,3,5.56,5.56,0,0,0,2.27,1.5,7.6,7.6,0,0,0,2.5.43,5.49,5.49,0,0,0,2.09-.37,5.94,5.94,0,0,0,1.63-1,5.37,5.37,0,0,0,1.11-1.3,4.66,4.66,0,0,0,.59-1.4l.32-1.54h-6v-5.08l13.89.07v16.65h-5v-3.81a16.08,16.08,0,0,1-1.94,1.93,10,10,0,0,1-2.88,1.65,12.25,12.25,0,0,1-4.34.67"/><polygon class="cls-2" points="78.76 200.65 86.23 200.65 86.23 226.13 99.44 226.13 99.44 232.33 78.74 232.33 78.76 200.65"/><path class="cls-2" d="M102.4,232.33l11.28-31.68h7.74l11.28,31.68h-7.41L123,225.6H112.26l-2.39,6.73Zm11.48-13.17h7.34l-3.64-11.35Z"/><polygon class="cls-2" points="157.74 200.65 165.19 200.65 165.19 232.33 158.46 232.33 144.33 212 144.33 232.33 136.86 232.33 136.86 200.65 144.33 200.65 157.74 219.97 157.74 200.65"/><path class="cls-2" d="M171.7,200.65h7.8c1.08,0,2,0,2.65.05a20.82,20.82,0,0,1,9.36,2.16,12.41,12.41,0,0,1,5.33,5.43,18.17,18.17,0,0,1,1.69,8.08,18.62,18.62,0,0,1-1.78,8.37,12.73,12.73,0,0,1-5.45,5.59,19.17,19.17,0,0,1-9.31,2H171.7Zm7.49,5.94v19.8h3a9.09,9.09,0,0,0,4.12-1,7.62,7.62,0,0,0,3.19-3.2,12.14,12.14,0,0,0,1.24-5.94,12.37,12.37,0,0,0-1-5.45,7,7,0,0,0-3-3.19,9.17,9.17,0,0,0-4.49-1Z"/></g></g></svg>