<svg xmlns="http://www.w3.org/2000/svg" xmlns:xlink="http://www.w3.org/1999/xlink" viewBox="0 0 191.04 208.04"><defs><style>.cls-1{fill:none;}.cls-2{fill:#2b74a8;}.cls-3{fill:url(#linear-gradient);}.cls-4{fill:#fff;}.cls-5{opacity:0.75;}.cls-6{clip-path:url(#clip-path);}.cls-7{opacity:0.5;}.cls-8{clip-path:url(#clip-path-2);}</style><linearGradient id="linear-gradient" x1="93.83" y1="101.04" x2="93.83" y2="51.88" gradientUnits="userSpaceOnUse"><stop offset="0" stop-color="#fff"/><stop offset="1" stop-color="#3fa9f5"/></linearGradient><clipPath id="clip-path"><rect class="cls-1" x="56.76" y="129.35" width="81.63" height="5.1"/></clipPath><clipPath id="clip-path-2"><rect class="cls-1" x="62.07" y="143.36" width="61.75" height="5.1"/></clipPath></defs><g id="Layer_2" data-name="Layer 2"><g id="Layer_1-2" data-name="Layer 1"><path class="cls-2" d="M191,104.6a6.34,6.34,0,0,0-1.87-4.51L158.5,69.42l16.16-16.16a10.59,10.59,0,0,0,4.37,1,10.82,10.82,0,0,0,7.65-3.18A10.65,10.65,0,0,0,186.83,36a10.23,10.23,0,0,0-7.53-3,10.86,10.86,0,0,0-10.7,10.7A10.31,10.31,0,0,0,170.68,50L154.89,65.81l-17.95-18,19.44-19.45a6.36,6.36,0,0,0,0-9l-3.58-3.57a10.68,10.68,0,0,0,1.5-5.26,10.34,10.34,0,0,0-3-7.53,10.74,10.74,0,0,0-15.19,15.19,10.36,10.36,0,0,0,7.39,3h.13a10.68,10.68,0,0,0,5.71-1.74L152.77,23a1.27,1.27,0,0,1,0,1.8L133.33,44.25,100,10.94a6.39,6.39,0,0,0-9,0L60.5,41.45l-16-16a10.64,10.64,0,0,0,1.57-5.4,10.34,10.34,0,0,0-3-7.53,10.78,10.78,0,0,0-18.23,7.67A10.38,10.38,0,0,0,35.27,30.78h.13A10.55,10.55,0,0,0,41,29.12L56.89,45.06,36.72,65.24,20.79,49.3a10.78,10.78,0,0,0,1.67-5.57,10.39,10.39,0,0,0-3.05-7.52,10.85,10.85,0,0,0-7.52-3.05,10.8,10.8,0,0,0-7.52,3.19,10.66,10.66,0,0,0-.15,15,10.42,10.42,0,0,0,7.4,3,10.79,10.79,0,0,0,5.52-1.57l16,16L1.87,100.09a6.38,6.38,0,0,0,0,9l30.74,30.75L17.43,155A10.74,10.74,0,0,0,4.64,172,10.33,10.33,0,0,0,12,175h.13A10.91,10.91,0,0,0,22.87,164.3a10.35,10.35,0,0,0-1.67-5.81l15-15,18,18L33.82,181.78a6.39,6.39,0,0,0,0,9l3.83,3.83a10.88,10.88,0,0,0-.46,2.85A10.38,10.38,0,0,0,47.62,208a10.78,10.78,0,0,0,7.65-3.18A10.54,10.54,0,1,0,40.37,190a.31.31,0,0,0-.07.09l-2.87-2.87a1.27,1.27,0,0,1,0-1.79L57.79,165,91,198.25a6.37,6.37,0,0,0,9,0L130.28,168,145,182.7a10.56,10.56,0,0,0,1.51,12.84,10.34,10.34,0,0,0,7.39,3H154a10.79,10.79,0,0,0,7.52-3.18,10.5,10.5,0,0,0-7.38-18.1,10.79,10.79,0,0,0-5.64,1.71l-14.63-14.62,20.51-20.51L169,158.5a10.76,10.76,0,0,0-1.84,5.88A10.42,10.42,0,0,0,177.61,175h.14a10.9,10.9,0,0,0,10.71-10.71,10.33,10.33,0,0,0-3.05-7.52,10.61,10.61,0,0,0-7.52-3.05,10.81,10.81,0,0,0-5.08,1.4L158,140.27l31.16-31.16A6.37,6.37,0,0,0,191,104.6ZM175.39,39.76a5.71,5.71,0,0,1,4-1.69h.07a5.3,5.3,0,0,1,3.78,1.55,5.64,5.64,0,0,1-8,8,5.3,5.3,0,0,1-1.55-3.85A5.62,5.62,0,0,1,175.39,39.76ZM147.51,14.48a5.68,5.68,0,0,1-4,1.69,5.15,5.15,0,0,1-3.85-1.55,5.54,5.54,0,0,1,.14-7.83,5.55,5.55,0,0,1,7.83-.14,5.28,5.28,0,0,1,1.55,3.85A5.72,5.72,0,0,1,147.51,14.48ZM39.32,24a5.68,5.68,0,0,1-4,1.69,5.39,5.39,0,0,1-3.85-1.55,5.28,5.28,0,0,1-1.55-3.85,5.77,5.77,0,0,1,5.67-5.67,5.34,5.34,0,0,1,3.85,1.55A5.28,5.28,0,0,1,41,20,5.72,5.72,0,0,1,39.32,24ZM15.66,47.65a5.55,5.55,0,0,1-7.83.14A5.56,5.56,0,0,1,8,40a5.66,5.66,0,0,1,4-1.69,5.3,5.3,0,0,1,5.41,5.4A5.71,5.71,0,0,1,15.66,47.65Zm.41,120.56a5.7,5.7,0,0,1-4,1.69,5.5,5.5,0,0,1-3.86-1.55,5.54,5.54,0,0,1,.15-7.83,5.72,5.72,0,0,1,4-1.69,5.29,5.29,0,0,1,5.34,5.4A5.69,5.69,0,0,1,16.07,168.21ZM44,193.56A5.75,5.75,0,0,1,48,191.87a5.29,5.29,0,0,1,3.78,1.55,5.64,5.64,0,0,1-8,8,5.33,5.33,0,0,1-1.56-3.85A5.75,5.75,0,0,1,44,193.56Zm106.27-9.46a5.71,5.71,0,0,1,4-1.69h.07a5.3,5.3,0,0,1,3.78,1.55,5.55,5.55,0,0,1-.14,7.83,5.72,5.72,0,0,1-4,1.69,5.4,5.4,0,0,1-3.71-9.38ZM174,160.47a5.67,5.67,0,0,1,4-1.7,5.45,5.45,0,0,1,3.85,1.56,5.27,5.27,0,0,1,1.56,3.85,5.79,5.79,0,0,1-5.67,5.67,5.3,5.3,0,0,1-5.41-5.41A5.71,5.71,0,0,1,174,160.47Z"/><rect class="cls-1" width="191.04" height="208.04"/><path class="cls-3" d="M153,100.25a1.25,1.25,0,0,1-1.19.79h-116a1.21,1.21,0,0,1-1.18-.79,1.23,1.23,0,0,1,.27-1.41L71.07,62.7a1.28,1.28,0,0,1,1.82,0l9.5,9.49L95.16,85A2.54,2.54,0,0,0,99,81.62l7.91-7.91a2.55,2.55,0,1,0-3.61-3.6L95.4,78l-2-2,9.75-9.75a2.55,2.55,0,0,0-3.6-3.61L89.8,72.38l-2.08-2.07,16.54-18a1.22,1.22,0,0,1,.92-.42,1.31,1.31,0,0,1,.94.37l46.63,46.59A1.27,1.27,0,0,1,153,100.25Z"/><path class="cls-4" d="M151.17,120.43h-20.4a2.55,2.55,0,1,1,0-5.1h20.4a2.55,2.55,0,1,1,0,5.1m-35.71,0h-10.2a2.55,2.55,0,0,1,0-5.1h10.2a2.55,2.55,0,1,1,0,5.1m-20.41,0H74.65a2.55,2.55,0,1,1,0-5.1h20.4a2.55,2.55,0,1,1,0,5.1m-35.71,0H49.14a2.55,2.55,0,1,1,0-5.1h10.2a2.55,2.55,0,1,1,0,5.1m-20.41,0H34.7a2.55,2.55,0,0,1,0-5.1h4.23a2.55,2.55,0,0,1,0,5.1"/><g class="cls-5"><g class="cls-6"><path class="cls-4" d="M135.84,134.45H115.43a2.55,2.55,0,0,1,0-5.1h20.41a2.55,2.55,0,0,1,0,5.1m-35.72,0H89.92a2.55,2.55,0,0,1,0-5.1h10.2a2.55,2.55,0,0,1,0,5.1m-20.4,0H59.31a2.55,2.55,0,0,1,0-5.1H79.72a2.55,2.55,0,0,1,0,5.1"/></g></g><g class="cls-7"><g class="cls-8"><path class="cls-4" d="M121.26,148.46h-20.4a2.55,2.55,0,1,1,0-5.1h20.4a2.55,2.55,0,1,1,0,5.1m-35.71,0H75.35a2.55,2.55,0,0,1,0-5.1h10.2a2.55,2.55,0,1,1,0,5.1m-20.41,0h-.52a2.55,2.55,0,1,1,0-5.1h.52a2.55,2.55,0,0,1,0,5.1"/></g></g></g></g></svg>